<?xml version="1.0" encoding="utf-8"?>
<!-- Generator: Adobe Illustrator 16.0.0, SVG Export Plug-In . SVG Version: 6.00 Build 0)  -->
<!DOCTYPE svg PUBLIC "-//W3C//DTD SVG 1.1//EN" "http://www.w3.org/Graphics/SVG/1.1/DTD/svg11.dtd">
<svg version="1.1" id="Forma_1_1_" xmlns="http://www.w3.org/2000/svg" xmlns:xlink="http://www.w3.org/1999/xlink" x="0px" y="0px"
	 width="30px" height="30px" viewBox="0 0 30 30" enable-background="new 0 0 30 30" xml:space="preserve">
<g id="Forma_1">
	<g>
		<path fill="#DD464E" d="M27.5,6.5V5.25C27.5,4.561,26.94,4,26.25,4H22.5c-0.69,0-1.25,0.561-1.25,1.25V6.5h-0.366l-0.518-0.518
			c-0.465-0.466-1.109-0.732-1.768-0.732h-7.197c-0.658,0-1.303,0.267-1.768,0.732L9.116,6.5H8.75V5.25C8.75,4.561,8.19,4,7.5,4
			H3.75C3.06,4,2.5,4.561,2.5,5.25V6.5C1.122,6.5,0,7.621,0,9v15c0,1.379,1.122,2.5,2.5,2.5h25c1.378,0,2.5-1.121,2.5-2.5V9
			C30,7.621,28.878,6.5,27.5,6.5z M6.875,12.75h-2.5c-0.345,0-0.625-0.28-0.625-0.625S4.03,11.5,4.375,11.5h2.5
			c0.346,0,0.625,0.28,0.625,0.625C7.5,12.471,7.22,12.75,6.875,12.75z M25.625,12.75H25v0.625C25,13.72,24.72,14,24.375,14
			c-0.346,0-0.625-0.28-0.625-0.625V12.75h-0.625c-0.346,0-0.625-0.28-0.625-0.625c0-0.346,0.279-0.625,0.625-0.625h0.625v-0.625
			c0-0.346,0.279-0.625,0.625-0.625c0.345,0,0.625,0.279,0.625,0.625V11.5h0.625c0.345,0,0.625,0.28,0.625,0.625
			C26.25,12.471,25.97,12.75,25.625,12.75z"/>
	</g>
</g>
</svg>
