<?xml version="1.0" encoding="utf-8"?>
<!-- Generator: Adobe Illustrator 16.0.0, SVG Export Plug-In . SVG Version: 6.00 Build 0)  -->
<!DOCTYPE svg PUBLIC "-//W3C//DTD SVG 1.1//EN" "http://www.w3.org/Graphics/SVG/1.1/DTD/svg11.dtd">
<svg version="1.1" id="Layer_1" xmlns="http://www.w3.org/2000/svg" xmlns:xlink="http://www.w3.org/1999/xlink" x="0px" y="0px"
	 width="52px" height="46px" viewBox="0 0 52 46" enable-background="new 0 0 52 46" xml:space="preserve">
<path fill-rule="evenodd" clip-rule="evenodd" fill="#DD464E" d="M51.994,22.116c0,19.472-13.453,23.435-24.667,23.846
	C27.146,45.986,26.96,46,26.77,46c-0.261,0-0.526-0.003-0.792-0.006C25.713,45.997,25.447,46,25.185,46
	c-0.19,0-0.377-0.014-0.559-0.04C13.43,45.55,0,41.585,0,22.116C0,2.938,16.189,0.318,24.825,0.033C24.944,0.012,25.064,0,25.185,0
	c0.253,0,0.519,0.001,0.793,0.006C26.252,0.001,26.517,0,26.77,0c0.12,0,0.24,0.012,0.357,0.033
	C35.774,0.317,51.994,2.935,51.994,22.116z"/>
</svg>
