<?xml version="1.0" encoding="utf-8"?>
<!-- Generator: Adobe Illustrator 16.0.0, SVG Export Plug-In . SVG Version: 6.00 Build 0)  -->
<!DOCTYPE svg PUBLIC "-//W3C//DTD SVG 1.1//EN" "http://www.w3.org/Graphics/SVG/1.1/DTD/svg11.dtd">
<svg version="1.1" id="Forma_1_1_" xmlns="http://www.w3.org/2000/svg" xmlns:xlink="http://www.w3.org/1999/xlink" x="0px" y="0px"
	 width="30px" height="30px" viewBox="0 0 30 30" enable-background="new 0 0 30 30" xml:space="preserve">
<g id="Forma_1">
	<g>
		<path fill="#DD464E" d="M26.763,11.873L19.775,4.89c-0.508-0.508-1.211-0.799-1.93-0.799h-2.564V2.045
			C15.281,0.917,14.363,0,13.234,0L7.776-0.001c-1.128,0-2.047,0.917-2.047,2.045V4.09C4.225,4.09,3,5.313,3,6.817v20.454
			c0,1.504,1.225,2.727,2.729,2.727l19.104,0.001c1.505,0,2.729-1.223,2.729-2.727V13.801C27.563,13.083,27.271,12.38,26.763,11.873
			z M13.234,24.545c-1.881,0-3.411-1.529-3.411-3.409c0-1.712,2.451-4.12,2.942-4.585c0.264-0.249,0.674-0.249,0.938,0
			c0.492,0.465,2.942,2.873,2.942,4.585C16.646,23.016,15.116,24.545,13.234,24.545z M23.552,16.446
			c-0.387,0.386-0.901,0.599-1.447,0.599s-1.061-0.213-1.447-0.599l-5.458-5.455c-0.798-0.798-0.798-2.095,0-2.893
			c0.797-0.797,2.098-0.797,2.895,0l5.458,5.455C24.35,14.351,24.35,15.648,23.552,16.446z"/>
	</g>
</g>
</svg>
