<?xml version="1.0" encoding="utf-8"?>
<!-- Generator: Adobe Illustrator 16.0.0, SVG Export Plug-In . SVG Version: 6.00 Build 0)  -->
<!DOCTYPE svg PUBLIC "-//W3C//DTD SVG 1.1//EN" "http://www.w3.org/Graphics/SVG/1.1/DTD/svg11.dtd">
<svg version="1.1" id="Forma_1_1_" xmlns="http://www.w3.org/2000/svg" xmlns:xlink="http://www.w3.org/1999/xlink" x="0px" y="0px"
	 width="30px" height="30px" viewBox="0 0 30 30" enable-background="new 0 0 30 30" xml:space="preserve">
<g id="Forma_1">
	<g>
		<path fill-rule="evenodd" clip-rule="evenodd" fill="#DD464E" d="M15.164,0.024c-5.587,0-10.116,4.455-10.116,9.951
			c0,4.913,3.173,8.128,3.173,8.128c0.071,0.072,0.13,0.141,0.231,0.206v1.862c0,0.838,0.713,1.518,1.552,1.518h4.317v-6.293
			l-2.833-2.849c-0.316-0.316-0.308-0.829,0.008-1.145c0.316-0.316,0.833-0.316,1.149,0l2.516,2.514l2.515-2.514
			c0.316-0.316,0.83-0.316,1.146,0c0.316,0.316,0.3,0.829-0.017,1.145l-2.866,2.849v6.293h4.385c0.838,0,1.484-0.679,1.484-1.518
			V18.31c0.101-0.065,0.194-0.134,0.265-0.206c0,0,2.758-2.772,3.155-7.099V8.977C24.72,3.95,20.408,0.024,15.164,0.024z
			 M20.325,23.41H10.002c-0.838,0-1.551,0.68-1.551,1.518v0.303c0,0.838,0.713,1.518,1.551,1.518h1.824
			c0.045,1.72,1.393,3.101,3.091,3.227h0.492c1.698-0.126,3.047-1.507,3.091-3.227h1.824c0.838,0,1.484-0.68,1.484-1.518v-0.303
			C21.809,24.089,21.163,23.41,20.325,23.41z"/>
	</g>
</g>
</svg>
