<?xml version="1.0" encoding="utf-8"?>
<!-- Generator: Adobe Illustrator 16.0.0, SVG Export Plug-In . SVG Version: 6.00 Build 0)  -->
<!DOCTYPE svg PUBLIC "-//W3C//DTD SVG 1.1//EN" "http://www.w3.org/Graphics/SVG/1.1/DTD/svg11.dtd">
<svg version="1.1" id="Layer_1" xmlns="http://www.w3.org/2000/svg" xmlns:xlink="http://www.w3.org/1999/xlink" x="0px" y="0px"
	 width="16px" height="16px" viewBox="0 0 16 16" enable-background="new 0 0 16 16" xml:space="preserve">
<path fill="#FFFFFF" stroke="#9A9A99" stroke-miterlimit="10" d="M15.338,14.295c0,0.574-0.469,1.043-1.042,1.043H1.704
	c-0.575,0-1.042-0.469-1.042-1.043V1.703c0-0.574,0.467-1.041,1.042-1.041h12.592c0.573,0,1.042,0.467,1.042,1.041V14.295z"/>
<path fill="none" stroke="#9A9A99" stroke-miterlimit="10" d="M3.91,8.328C3.598,8.328,3.344,8.182,3.344,8l0,0
	c0-0.182,0.254-0.328,0.566-0.328h8.18c0.313,0,0.566,0.146,0.566,0.328l0,0c0,0.182-0.254,0.328-0.566,0.328H3.91z"/>
</svg>
