<?xml version="1.0" encoding="utf-8"?>
<!-- Generator: Adobe Illustrator 16.0.0, SVG Export Plug-In . SVG Version: 6.00 Build 0)  -->
<!DOCTYPE svg PUBLIC "-//W3C//DTD SVG 1.1//EN" "http://www.w3.org/Graphics/SVG/1.1/DTD/svg11.dtd">
<svg version="1.1" id="Forma_1_1_" xmlns="http://www.w3.org/2000/svg" xmlns:xlink="http://www.w3.org/1999/xlink" x="0px" y="0px"
	 width="30px" height="30px" viewBox="0 0 30 30" enable-background="new 0 0 30 30" xml:space="preserve">
<g id="Forma_1">
	<g>
		<path fill-rule="evenodd" clip-rule="evenodd" fill="#DD464E" d="M25.92,9.661c0.204,0.204,0.494,0.294,0.778,0.243
			c0.283-0.051,0.523-0.238,0.643-0.501l2.945-6.676c0.151-0.333,0.08-0.726-0.179-0.985l-1.242-1.243
			c-0.259-0.259-0.651-0.33-0.984-0.179L21.21,3.267c-0.262,0.12-0.449,0.36-0.501,0.644c-0.051,0.284,0.04,0.575,0.243,0.779
			L25.92,9.661z M1.157,24.499c-1.027,1.028-1.027,2.701,0,3.729l1.242,1.243c1.027,1.028,2.699,1.028,3.726,0l4.903-4.907
			L6.06,19.592L1.157,24.499z M7.932,22.703c0.343,0.344,0.343,0.899,0,1.243l-2.419,2.421c-0.343,0.343-0.898,0.343-1.242,0
			c-0.343-0.344-0.343-0.9,0-1.243l2.419-2.421C7.033,22.36,7.589,22.36,7.932,22.703z M9.786,15.863
			c-0.685-0.685-1.799-0.685-2.484,0c-0.685,0.686-0.685,1.801,0,2.486l4.968,4.972c0.685,0.686,1.799,0.686,2.484,0
			c0.685-0.685,0.685-1.8,0-2.486L9.786,15.863z M23.437,9.661l-2.484-2.486l-6.819,6.824c-0.686-0.687-1.798-0.687-2.484,0
			l-0.621,0.622l4.968,4.972l0.621-0.622c0.686-0.687,0.686-1.799,0-2.486L23.437,9.661z M23.716,19.857l-3.993-3.995l-0.953,0.954
			c0.314,1.181,0.008,2.477-0.911,3.397l-0.62,0.62l2.748,2.75c-0.277,1.551-0.251,2.867,0.712,4.294
			c1.111,1.648,3.056,2.584,5.094,2.304c0.336-0.046,0.618-0.28,0.726-0.603c0.108-0.322,0.025-0.679-0.215-0.919l-1.208-1.207
			v-2.485h2.486l1.201,1.202c0.241,0.241,0.598,0.324,0.92,0.215c0.322-0.109,0.555-0.392,0.601-0.73
			c0.214-1.599-0.308-3.243-1.48-4.416C27.398,19.813,25.684,19.506,23.716,19.857z M2.735,9.9c1.432,0.965,2.754,0.989,4.293,0.712
			l2.759,2.765l0.62-0.62c0.919-0.92,2.215-1.226,3.395-0.912l0.953-0.954L10.752,6.88c0.349-1.948,0.066-3.662-1.381-5.111
			C8.387,0.784,7.069,0.242,5.662,0.242c-0.237,0-0.471,0.016-0.703,0.046c-0.338,0.045-0.621,0.278-0.73,0.602
			C4.12,1.212,4.203,1.569,4.444,1.811l1.213,1.202v2.503H3.161L1.957,4.293C1.716,4.053,1.36,3.969,1.038,4.078
			c-0.322,0.108-0.556,0.39-0.602,0.728C0.168,6.755,1.013,8.736,2.735,9.9z"/>
	</g>
</g>
</svg>
