<?xml version="1.0" encoding="utf-8"?>
<!-- Generator: Adobe Illustrator 16.0.0, SVG Export Plug-In . SVG Version: 6.00 Build 0)  -->
<!DOCTYPE svg PUBLIC "-//W3C//DTD SVG 1.1//EN" "http://www.w3.org/Graphics/SVG/1.1/DTD/svg11.dtd">
<svg version="1.1" id="Forma_1_1_" xmlns="http://www.w3.org/2000/svg" xmlns:xlink="http://www.w3.org/1999/xlink" x="0px" y="0px"
	 width="510px" height="510px" viewBox="0 0 510 510" enable-background="new 0 0 510 510" xml:space="preserve">
<g id="Forma_1">
	<g>
		<path d="M408,408c-28.05,0-51,22.95-51,51s22.95,51,51,51s51-22.95,51-51S436.05,408,408,408z M153,408c-28.05,0-51,22.95-51,51
			s22.95,51,51,51s51-22.95,51-51S181.05,408,153,408z M181.05,280.5h188.7c20.4,0,35.7-10.2,43.35-25.5L504.9,89.25
			c5.1-5.1,5.1-7.65,5.1-12.75c0-15.3-10.2-25.5-25.5-25.5H107.1L84.15,0H0v51h51l91.8,193.8L107.1,306
			c-2.55,7.65-5.1,17.85-5.1,25.5c0,28.05,22.95,51,51,51h306v-51H163.2c-2.55,0-5.101-2.55-5.101-5.1v-2.551L181.05,280.5z"/>
	</g>
</g>
</svg>
