<?xml version="1.0" encoding="utf-8"?>
<!-- Generator: Adobe Illustrator 16.0.0, SVG Export Plug-In . SVG Version: 6.00 Build 0)  -->
<!DOCTYPE svg PUBLIC "-//W3C//DTD SVG 1.1//EN" "http://www.w3.org/Graphics/SVG/1.1/DTD/svg11.dtd">
<svg version="1.1" id="Forma_1_1_" xmlns="http://www.w3.org/2000/svg" xmlns:xlink="http://www.w3.org/1999/xlink" x="0px" y="0px"
	 width="30px" height="30px" viewBox="0 0 30 30" enable-background="new 0 0 30 30" xml:space="preserve">
<g id="Forma_1">
	<g>
		<path fill-rule="evenodd" clip-rule="evenodd" fill="#DD464E" d="M20.807,23.42v6.563h0.957v-6.146h0.977v6.146h5.791V23.42
			H20.807z M15.625,4.774c-0.129,0-0.233,0.106-0.233,0.239c0,0.131,0.104,0.238,0.233,0.238c0.128,0,0.232-0.106,0.232-0.238
			C15.857,4.88,15.753,4.774,15.625,4.774z M1.75,29.983h7.733v-0.553H1.75V29.983z M1.75,29.013h7.733V8.376H1.75V29.013z
			 M2.699,9.829h0.979v17.939H2.699V9.829z M11.542,29.983h7.738v-0.528h-7.738V29.983z M1.75,7.859h7.733V0.35H1.75V7.859z
			 M2.699,0.769h0.979V7.5H2.699V0.769z M18.534,6.705h-0.425V6.151h-1.287V3.875l-2.435-0.001v2.278h-1.463v0.554h-0.459v1.697
			h-0.922v20.636h7.739V8.401h-0.748V6.705z M13.477,27.792h-0.98V9.852h0.98V27.792z M15.625,5.598c-0.315,0-0.57-0.262-0.57-0.585
			s0.255-0.585,0.57-0.585s0.571,0.262,0.571,0.585S15.94,5.598,15.625,5.598z"/>
	</g>
</g>
</svg>
